<?xml version="1.0" encoding="utf-8"?>
<!-- Generator: Adobe Illustrator 19.2.1, SVG Export Plug-In . SVG Version: 6.00 Build 0)  -->
<svg version="1.1" id="Layer_1" xmlns="http://www.w3.org/2000/svg" xmlns:xlink="http://www.w3.org/1999/xlink" x="0px" y="0px"
	 viewBox="0 0 245.2 242.6" style="enable-background:new 0 0 245.2 242.6;" xml:space="preserve">
<style type="text/css">
	.st0{fill:#FCB514;}
	.st1{clip-path:url(#SVGID_2_);fill:#FCB514;}
	.st2{clip-path:url(#SVGID_4_);fill:#FCB514;}
	.st3{clip-path:url(#SVGID_6_);fill:#FCB514;}
</style>
<g>
	<path class="st0" d="M120.2,157.5c-10.2,0-18.5-8.9-18.5-19.9c0-1.7,0.2-3.9,0.6-6.2c0.4-2.2,2.4-3.7,4.6-3.3s3.7,2.4,3.3,4.6
		c-0.4,2.4-0.5,4-0.5,4.9c0,6.9,5.4,12.4,11.4,11.8c2.2-0.2,4.2,1.4,4.4,3.6c0.2,2.2-1.4,4.2-3.6,4.4
		C121.4,157.5,120.8,157.5,120.2,157.5L120.2,157.5z"/>
	<path class="st0" d="M156.9,141.3c0-11.7-9.8-69.2-35.9-69.2s-35.9,57.5-35.9,69.2c0,13.3,6.7,24.2,17.3,30v15.9h0.1
		c0,3.2,8.3,5.7,18.5,5.7s18.5-2.5,18.5-5.7v-15.9C150.2,165.5,156.9,154.6,156.9,141.3L156.9,141.3z M135.7,161.2
		c-3.8,1.2-9.8,2.7-14.9,2.7c-5.2,0-10.7-1.4-14.3-2.6c-6.4-3.9-10.7-10.7-10.7-20.1c0-15.3,11.3-58.5,25.2-58.5
		s25.2,43.2,25.2,58.5C146.1,150.5,142,157.3,135.7,161.2L135.7,161.2z"/>
	<path class="st0" d="M121,63.2c-2.2,0-4-1.8-4-4v-8.7c0-2.2,1.8-4,4-4s4,1.8,4,4v8.7C125,61.4,123.2,63.2,121,63.2L121,63.2z"/>
	<g>
		<g>
			<defs>
				<rect id="SVGID_1_" x="78" y="46.5" width="86.2" height="146.6"/>
			</defs>
			<clipPath id="SVGID_2_">
				<use xlink:href="#SVGID_1_"  style="overflow:visible;"/>
			</clipPath>
			<path class="st1" d="M140.9,68.9c-1,0-2.1-0.4-2.8-1.2c-1.6-1.6-1.6-4.1,0-5.7l6.1-6.1c1.6-1.6,4.1-1.6,5.7,0
				c1.6,1.6,1.6,4.1,0,5.7l-6.1,6.1C143,68.5,141.9,68.9,140.9,68.9L140.9,68.9z"/>
		</g>
		<g>
			<defs>
				<rect id="SVGID_3_" x="78" y="46.5" width="86.2" height="146.6"/>
			</defs>
			<clipPath id="SVGID_4_">
				<use xlink:href="#SVGID_3_"  style="overflow:visible;"/>
			</clipPath>
			<path class="st2" d="M151.8,85.4c-1.7,0-3.2-1.1-3.8-2.7c-0.7-2.1,0.4-4.4,2.5-5.1l8.2-2.7c2.1-0.7,4.4,0.4,5.1,2.5
				c0.7,2.1-0.4,4.4-2.5,5.1l-8.2,2.7C152.6,85.3,152.2,85.4,151.8,85.4L151.8,85.4z"/>
		</g>
		<g>
			<defs>
				<rect id="SVGID_5_" x="78" y="46.5" width="86.2" height="146.6"/>
			</defs>
			<clipPath id="SVGID_6_">
				<use xlink:href="#SVGID_5_"  style="overflow:visible;"/>
			</clipPath>
			<path class="st3" d="M90.2,85.4c-0.4,0-0.8-0.1-1.3-0.2l-8.2-2.7c-2.1-0.7-3.2-3-2.5-5.1s2.9-3.2,5.1-2.5l8.2,2.7
				c2.1,0.7,3.2,3,2.5,5.1C93.4,84.3,91.9,85.4,90.2,85.4L90.2,85.4z"/>
		</g>
	</g>
	<path class="st0" d="M101,68.9c-1,0-2.1-0.4-2.8-1.2l-6.1-6.1c-1.6-1.6-1.6-4.1,0-5.7c1.6-1.6,4.1-1.6,5.7,0l6.1,6.1
		c1.6,1.6,1.6,4.1,0,5.7C103.1,68.5,102.1,68.9,101,68.9L101,68.9z"/>
</g>
</svg>
