<?xml version="1.0" encoding="utf-8"?>
<!-- Generator: Adobe Illustrator 19.2.1, SVG Export Plug-In . SVG Version: 6.00 Build 0)  -->
<svg version="1.1" id="Layer_1" xmlns="http://www.w3.org/2000/svg" xmlns:xlink="http://www.w3.org/1999/xlink" x="0px" y="0px"
	 viewBox="0 0 245.2 242.6" style="enable-background:new 0 0 245.2 242.6;" xml:space="preserve">
<style type="text/css">
	.st0{fill:#FCB514;}
</style>
<g>
	<path class="st0" d="M198.3,119.3c0-5.6-4.4-9.8-11-12.7c5.4-5.6,7.3-11.2,5.3-16c-2-4.8-7.3-7.4-15.1-7.5
		c3.8-9.7,0.9-14.7-1.2-16.8c-1.4-1.4-3.9-3.1-8.1-3.1c-2.6,0-5.5,0.7-8.7,1.9c-0.1-7.7-2.7-13.1-7.5-15.1c-4.8-2-10.4-0.1-16,5.3
		c-2.9-6.6-7.1-11-12.7-11s-9.8,4.4-12.7,11c-5.6-5.4-11.2-7.3-16-5.3c-4.8,2-7.4,7.3-7.5,15.1c-3.1-1.2-6.1-1.9-8.7-1.9
		c-4.2,0-6.7,1.7-8.1,3.1c-2.1,2.1-5,7.1-1.2,16.8c-7.7,0.1-13.1,2.7-15.1,7.5c-2,4.8-0.1,10.4,5.3,16c-6.6,2.9-11,7.1-11,12.7
		s4.4,9.8,11,12.7c-5.4,5.6-7.3,11.2-5.3,16c2,4.8,7.3,7.4,15.1,7.5c-3.8,9.7-0.9,14.7,1.2,16.8c1.4,1.4,3.9,3.1,8.1,3.1
		c2.6,0,5.5-0.7,8.7-1.9c0.1,7.7,2.7,13.1,7.5,15.1c1.2,0.5,2.5,0.8,3.9,0.8c3.8,0,8-2.1,12.1-6.1c2.9,6.6,7.1,11,12.7,11
		s9.8-4.4,12.7-11c4.1,4,8.3,6.1,12.1,6.1c1.3,0,2.6-0.3,3.9-0.8c4.8-2,7.4-7.3,7.5-15.1c3.1,1.2,6.1,1.9,8.7,1.9
		c4.2,0,6.7-1.7,8.1-3.1c2.1-2.1,5-7.1,1.2-16.8c7.7-0.1,13.1-2.7,15.1-7.5c2-4.8,0.1-10.4-5.3-16
		C193.8,129.1,198.3,124.8,198.3,119.3L198.3,119.3z M184,94.1c0.3,0.8-0.9,4.5-7.3,9.3c-3.9-0.7-8.1-1.1-12.4-1.2
		c3-3.1,5.7-6.3,7.9-9.6C180.2,91.6,183.7,93.4,184,94.1L184,94.1z M169.8,72.9c0.5,0.5,0.8,2.9-1.1,7.4
		c-2.2,5.1-6.4,11.1-11.7,16.3c-2.7,2.7-5.6,5.1-8.5,7.2l-1.5,1.1c-0.6-2.2-1.8-4.2-3.4-5.8c-1.6-1.6-3.6-2.8-5.8-3.4l1.1-1.5
		c2.1-2.9,4.5-5.8,7.2-8.5c9.1-9.1,17.8-13.2,22.2-13.2C169.1,72.5,169.6,72.7,169.8,72.9L169.8,72.9z M138,128.7
		c0.5,1.5,0.1,3.1-1,4.2c-0.8,0.8-1.8,1.2-2.9,1.2c-0.5,0-0.9-0.1-1.4-0.2l-3.9-1.4l-1.8,3.8c-0.7,1.4-2.1,2.3-3.7,2.3
		c-1.6,0-3-0.9-3.7-2.3l-1.8-3.8l-3.9,1.4c-0.4,0.2-0.9,0.2-1.4,0.2c-1.1,0-2.1-0.4-2.9-1.2c-1.1-1.1-1.5-2.8-1-4.2l1.4-3.9
		l-3.8-1.8c-1.4-0.7-2.3-2.1-2.3-3.7s0.9-3,2.3-3.7l3.8-1.8l-1.4-3.9c-0.5-1.5-0.1-3.1,1-4.2c0.8-0.8,1.8-1.2,2.9-1.2
		c0.5,0,0.9,0.1,1.4,0.2l3.9,1.4l1.8-3.8c0.7-1.4,2.1-2.3,3.7-2.3c1.6,0,3,0.9,3.7,2.3l1.8,3.8l3.9-1.4c0.4-0.2,0.9-0.2,1.4-0.2
		c1.1,0,2.1,0.4,2.9,1.2c1.1,1.1,1.5,2.8,1,4.2l-1.4,3.9l3.8,1.8c1.4,0.7,2.3,2.1,2.3,3.7s-0.9,3-2.3,3.7l-3.8,1.8L138,128.7z
		 M148.5,58.6c0.8,0.3,2.5,3.8,1.5,11.7c-3.2,2.2-6.5,4.9-9.6,7.9c-0.1-4.2-0.5-8.4-1.2-12.4C144,59.6,147.7,58.3,148.5,58.6
		L148.5,58.6z M123.4,53.6c0.7,0,2.6,1.5,4.4,6c2.1,5.1,3.3,12.4,3.3,19.8c0,3.8-0.3,7.6-0.9,11.1l-0.3,1.8c-2-1.1-4.2-1.7-6.5-1.7
		c-2.3,0-4.5,0.6-6.5,1.7l-0.3-1.8c-0.6-3.5-0.9-7.3-0.9-11.1c0-7.5,1.2-14.7,3.3-19.8C120.8,55.1,122.7,53.6,123.4,53.6L123.4,53.6
		z M98.3,58.6c0.8-0.3,4.5,0.9,9.3,7.3c-0.7,3.9-1.1,8.1-1.2,12.4c-3.1-3-6.4-5.7-9.6-7.9C95.8,62.5,97.5,59,98.3,58.6L98.3,58.6z
		 M77,72.9c0.2-0.2,0.7-0.4,1.6-0.4c4.3,0,13.1,4.1,22.2,13.2c2.7,2.7,5.1,5.6,7.2,8.5l1,1.5c-2.2,0.6-4.2,1.8-5.8,3.4
		c-1.6,1.6-2.8,3.6-3.4,5.8l-1.5-1.1c-2.9-2.1-5.8-4.5-8.5-7.2c-5.3-5.3-9.5-11.2-11.7-16.3C76.2,75.7,76.5,73.3,77,72.9L77,72.9z
		 M62.8,94.1c0.3-0.8,3.8-2.5,11.7-1.5c2.2,3.2,4.9,6.5,7.9,9.6c-4.2,0.1-8.4,0.5-12.4,1.2C63.7,98.6,62.4,94.9,62.8,94.1L62.8,94.1
		z M57.8,119.3c0-0.7,1.5-2.6,6-4.4c5.1-2.1,12.4-3.3,19.8-3.3c3.8,0,7.6,0.3,11.1,0.9l1.8,0.3c-1.1,2-1.7,4.2-1.7,6.5
		s0.6,4.5,1.7,6.5l-1.8,0.3c-3.5,0.6-7.3,0.9-11.1,0.9c-7.5,0-14.7-1.2-19.8-3.3C59.2,121.8,57.8,119.9,57.8,119.3L57.8,119.3z
		 M62.8,144.4c-0.3-0.8,0.9-4.5,7.3-9.3c3.9,0.7,8.1,1.1,12.4,1.2c-3,3.1-5.7,6.3-7.9,9.6C66.6,146.9,63.1,145.2,62.8,144.4
		L62.8,144.4z M77,165.7c-0.5-0.5-0.8-2.9,1.1-7.4c2.2-5.1,6.4-11.1,11.7-16.3c2.7-2.7,5.6-5.1,8.5-7.2l1.5-1.1
		c0.6,2.2,1.8,4.2,3.4,5.8c1.6,1.6,3.6,2.8,5.8,3.4l-1.1,1.5c-2.1,2.9-4.5,5.8-7.2,8.5c-9.1,9.1-17.8,13.2-22.2,13.2
		C77.6,166,77.1,165.8,77,165.7L77,165.7z M98.3,179.9c-0.8-0.3-2.5-3.8-1.5-11.7c3.2-2.2,6.5-4.9,9.6-7.9c0.1,4.2,0.5,8.4,1.2,12.4
		C102.8,178.9,99.1,180.2,98.3,179.9L98.3,179.9z M123.4,184.9c-0.7,0-2.6-1.5-4.4-6c-2.1-5.1-3.3-12.4-3.3-19.8
		c0-3.8,0.3-7.6,0.9-11.1l0.3-1.8c2,1.1,4.2,1.7,6.5,1.7c2.3,0,4.5-0.6,6.5-1.7l0.3,1.8c0.6,3.5,0.9,7.3,0.9,11.1
		c0,7.5-1.2,14.7-3.3,19.8C126,183.4,124,184.9,123.4,184.9L123.4,184.9z M148.5,179.9c-0.8,0.3-4.5-0.9-9.3-7.3
		c0.7-3.9,1.1-8.1,1.2-12.4c3.1,3,6.4,5.7,9.6,7.9C151,176,149.3,179.6,148.5,179.9L148.5,179.9z M169.8,165.7
		c-0.2,0.2-0.7,0.4-1.6,0.4c-4.3,0-13.1-4.1-22.2-13.2c-2.7-2.7-5.1-5.6-7.2-8.5l-1-1.5c2.2-0.6,4.2-1.8,5.8-3.4
		c1.6-1.6,2.8-3.6,3.4-5.8l1.5,1.1c2.9,2.1,5.8,4.5,8.5,7.2c5.3,5.3,9.5,11.2,11.7,16.3C170.6,162.8,170.2,165.2,169.8,165.7
		L169.8,165.7z M184,144.4c-0.3,0.8-3.8,2.5-11.7,1.5c-2.2-3.2-4.9-6.5-7.9-9.6c4.2-0.1,8.4-0.5,12.4-1.2
		C183.1,139.9,184.3,143.6,184,144.4L184,144.4z M183,123.7c-5.1,2.1-12.4,3.3-19.8,3.3c-3.8,0-7.6-0.3-11.1-0.9l-1.8-0.3
		c1.1-2,1.7-4.2,1.7-6.5s-0.6-4.5-1.7-6.5l1.8-0.3c3.5-0.6,7.3-0.9,11.1-0.9c7.5,0,14.7,1.2,19.8,3.3c4.6,1.8,6,3.8,6,4.4
		S187.5,121.8,183,123.7L183,123.7z M183,123.7"/>
</g>
<g>
</g>
<g>
</g>
<g>
</g>
<g>
</g>
<g>
</g>
<g>
</g>
</svg>
