<?xml version="1.0" encoding="utf-8"?>
<!-- Generator: Adobe Illustrator 19.2.1, SVG Export Plug-In . SVG Version: 6.00 Build 0)  -->
<svg version="1.1" id="Layer_1" xmlns="http://www.w3.org/2000/svg" xmlns:xlink="http://www.w3.org/1999/xlink" x="0px" y="0px"
	 viewBox="0 0 245.2 242.6" style="enable-background:new 0 0 245.2 242.6;" xml:space="preserve">
<style type="text/css">
	.st0{fill:#FFFFFF;}
	.st1{fill:#FCB514;}
</style>
<path class="st0" d="M121.6,3.5C56.8,3.5,4.2,56,4.2,120.9s52.6,117.4,117.4,117.4S239,185.7,239,120.9S186.4,3.5,121.6,3.5z
	 M121.6,233.6c-62.2,0-112.7-50.5-112.7-112.7C8.9,58.6,59.3,8.2,121.6,8.2s112.7,50.5,112.7,112.7
	C234.3,183.1,183.8,233.6,121.6,233.6z"/>
<path class="st1" d="M153.5,107.2c-13.6-17.8-26.6-29.8-27.7-53.3c-0.1-1.8-1.9-3.6-3.8-2.7c-0.6,0.3-1,0.7-1.4,1.2
	c-1.7,2.1-3.3,4.2-5.1,6.3c-2.2,2.6-4.4,5.3-6.5,8c-4.7,6.1-9.1,12.4-13.2,18.9c-8.4,13.4-15.7,28-19.6,43.4
	c-3.3,13.1-4,27.9,3.1,39.9c5.4,9.1,14.5,15.1,24.3,18.7c27.9,10.4,59.6-3.7,65.1-34.2C171.7,136.9,163.2,119.6,153.5,107.2z
	 M103.8,172.7c-6.9-4.3-11.4-11.8-13-19.6c-0.8-3.9-1-8-0.3-11.9c0.4-2.5,1.1-5,1.9-7.4c0.4-1.3,0.9-2.6,1.3-3.9
	c0.3-0.8,1.6-3,1.4-3.9c1.2,5.1,3.5,10.2,6.7,13.8c7.4,8.1,22.4,12.9,26.6,23.1c2.5,6.2-7.4,11.5-11.5,12.9
	C112.4,177.4,107.5,175,103.8,172.7z M103.8,172.7"/>
<g>
</g>
<g>
</g>
<g>
</g>
<g>
</g>
<g>
</g>
<g>
</g>
</svg>
