<?xml version="1.0" encoding="utf-8"?>
<!-- Generator: Adobe Illustrator 19.2.1, SVG Export Plug-In . SVG Version: 6.00 Build 0)  -->
<svg version="1.1" id="Layer_1" xmlns="http://www.w3.org/2000/svg" xmlns:xlink="http://www.w3.org/1999/xlink" x="0px" y="0px"
	 viewBox="0 0 245.2 242.6" style="enable-background:new 0 0 245.2 242.6;" xml:space="preserve">
<style type="text/css">
	.st0{fill:#FCB514;}
</style>
<g>
	<path class="st0" d="M62.8,178.4c11.3,11.3,33.4,7.7,49.1-8c1.1-1.1,9.4-9.5,11.7-12l-17.8-17.8l47.7-47.7
		c7.8,5.5,20.1,3.3,28.9-5.4c0.7-0.7,7.1-7.2,7-7.2l-27-27c-0.1-0.1-6.5,6.3-7.2,7c-8.3,8.3-10.6,19.7-6.3,27.5l-47.9,48l-18.2-18.2
		c-2.5,2.3-10.9,10.6-12,11.7C55.1,145,51.5,167.1,62.8,178.4L62.8,178.4z M157.8,64.8c0.5-0.5,0.9-0.9,1-0.8l20,20
		c0,0-0.2,0.4-0.7,0.9c-7.1,7.1-17.7,8.6-23.2,3.1C149.2,82.3,150.7,71.9,157.8,64.8L157.8,64.8z M81.8,160.4
		c-0.6-0.6,1.9-4.3,6.1-8.9c1.3-1.4,2.8-3,4.3-4.5c1.9-1.9,3.7-3.5,5.3-5l2.7,2.7c-1.5,1.7-3.1,3.5-5,5.3c-1.6,1.6-3.1,3-4.5,4.3
		C86.1,158.4,82.5,161,81.8,160.4L81.8,160.4z"/>
</g>
</svg>
