<?xml version="1.0" encoding="utf-8"?>
<!-- Generator: Adobe Illustrator 19.2.1, SVG Export Plug-In . SVG Version: 6.00 Build 0)  -->
<svg version="1.1" id="Layer_1" xmlns="http://www.w3.org/2000/svg" xmlns:xlink="http://www.w3.org/1999/xlink" x="0px" y="0px"
	 viewBox="0 0 245.2 242.6" style="enable-background:new 0 0 245.2 242.6;" xml:space="preserve">
<style type="text/css">
	.st0{display:none;}
	.st1{display:inline;}
	.st2{clip-path:url(#SVGID_2_);}
	.st3{clip-path:url(#SVGID_4_);}
	.st4{clip-path:url(#SVGID_6_);}
	.st5{clip-path:url(#SVGID_8_);}
	.st6{clip-path:url(#SVGID_10_);fill:#FCB514;}
	.st7{clip-path:url(#SVGID_12_);fill:#FCB514;}
	.st8{clip-path:url(#SVGID_14_);fill:#FCB514;}
	.st9{clip-path:url(#SVGID_16_);fill:#FCB514;}
</style>
<g class="st0">
	<path class="st1" d="M73,182.6c12.5,9.6,33.6,3.2,47-14.2c1-1.3,7.9-10.5,9.9-13.2l-19.7-15.1l40.5-52.7c8.3,4.3,20.1,0.7,27.6-9
		c0.6-0.8,6-7.9,5.9-8l-29.8-22.9c-0.1-0.1-5.6,7-6.2,7.8c-7,9.2-7.9,20.7-2.6,27.7l-40.7,53l-20.1-15.5c-2.1,2.6-9.3,11.7-10.2,13
		C61.2,151,60.4,173,73,182.6L73,182.6z M151.3,59.4c0.4-0.6,0.8-1,0.8-0.9l22.1,17c0.1,0-0.1,0.4-0.6,0.9c-6,7.9-16.2,10.7-22.3,6
		C145.2,77.6,145.3,67.2,151.3,59.4L151.3,59.4z M89.3,162.6c-0.7-0.5,1.4-4.4,4.8-9.5c1.1-1.6,2.3-3.2,3.6-5
		c1.6-2.1,3.1-3.9,4.6-5.6l3,2.3c-1.2,1.8-2.6,3.8-4.2,5.8c-1.3,1.7-2.7,3.3-3.9,4.8C93.2,160.1,90,163.1,89.3,162.6L89.3,162.6z"/>
</g>
<g class="st0">
	<g class="st1">
		<g>
			<defs>
				<rect id="SVGID_1_" x="73.3" y="52.9" width="95.6" height="138.4"/>
			</defs>
			<clipPath id="SVGID_2_">
				<use xlink:href="#SVGID_1_"  style="overflow:visible;"/>
			</clipPath>
			<path class="st2" d="M151.3,108.1c-13.3-17.4-26-29.2-27.1-52.2c0-0.7-0.2-1.1-0.7-1.6c-0.2-1.1-1.4-1.8-2.5-1.1
				c-1.4,0-2.5,0.9-2.5,2.5c-28.5,30.7-76.6,108.7-16,131.1c27.3,10.2,58.3-3.6,63.7-33.5C169.1,137.2,160.8,120.3,151.3,108.1
				L151.3,108.1z M102.7,172.3C96.1,168.4,92,160.7,90,154c-0.9-3.4-1.4-6.8-1.1-10.2c1.4-5.9,3.2-11.5,5.2-17.2
				c1.1,5,3.4,9.9,6.6,13.6c7.2,7.9,21.9,12.7,26,22.6c2.5,6.1-7.2,11.3-11.3,12.7C111,176.8,106.3,174.5,102.7,172.3L102.7,172.3z"
				/>
		</g>
	</g>
</g>
<g class="st0">
	<path class="st1" d="M112.9,156.1c-9.5,0-17.2-8.3-17.2-18.5c0-1.6,0.2-3.6,0.6-5.8c0.3-2,2.2-3.4,4.3-3.1c2,0.3,3.4,2.3,3.1,4.3
		c-0.4,2.3-0.5,3.7-0.5,4.6c0,6.4,5,11.5,10.6,11c2.1-0.2,3.9,1.3,4.1,3.3c0.2,2.1-1.3,3.9-3.3,4.1
		C114,156.1,113.4,156.1,112.9,156.1L112.9,156.1z"/>
	<path class="st1" d="M147,141c0-10.9-9.1-64.4-33.4-64.4S80.2,130.1,80.2,141c0,12.4,6.2,22.5,16.1,27.9v14.8h0.1
		c0,2.9,7.7,5.3,17.2,5.3s17.2-2.4,17.2-5.3v-14.8C140.7,163.5,147,153.4,147,141L147,141z M127.2,159.5c-3.6,1.1-9.1,2.5-13.8,2.5
		c-4.8,0-9.9-1.3-13.3-2.4c-6-3.6-9.9-10-9.9-18.7c0-14.2,10.5-54.4,23.4-54.4s23.4,40.2,23.4,54.4
		C137,149.6,133.1,155.9,127.2,159.5L127.2,159.5z"/>
	<path class="st1" d="M113.6,68.4c-2.1,0-3.7-1.7-3.7-3.7v-8c0-2.1,1.7-3.7,3.7-3.7c2.1,0,3.7,1.7,3.7,3.7v8
		C117.3,66.7,115.7,68.4,113.6,68.4L113.6,68.4z"/>
	<g class="st1">
		<g>
			<defs>
				<rect id="SVGID_3_" x="73.6" y="52.9" width="80.1" height="136.3"/>
			</defs>
			<clipPath id="SVGID_4_">
				<use xlink:href="#SVGID_3_"  style="overflow:visible;"/>
			</clipPath>
			<path class="st3" d="M132.1,73.7c-1,0-1.9-0.4-2.6-1.1c-1.5-1.5-1.5-3.8,0-5.3l5.7-5.7c1.5-1.5,3.8-1.5,5.3,0s1.5,3.8,0,5.3
				l-5.7,5.7C134,73.4,133.1,73.7,132.1,73.7L132.1,73.7z"/>
		</g>
		<g>
			<defs>
				<rect id="SVGID_5_" x="73.6" y="52.9" width="80.1" height="136.3"/>
			</defs>
			<clipPath id="SVGID_6_">
				<use xlink:href="#SVGID_5_"  style="overflow:visible;"/>
			</clipPath>
			<path class="st4" d="M142.2,89.1c-1.6,0-3-1-3.5-2.6c-0.7-2,0.4-4.1,2.4-4.7l7.6-2.5c2-0.7,4.1,0.4,4.7,2.4
				c0.7,2-0.4,4.1-2.4,4.7l-7.6,2.5C143,89,142.6,89.1,142.2,89.1L142.2,89.1z"/>
		</g>
		<g>
			<defs>
				<rect id="SVGID_7_" x="73.6" y="52.9" width="80.1" height="136.3"/>
			</defs>
			<clipPath id="SVGID_8_">
				<use xlink:href="#SVGID_7_"  style="overflow:visible;"/>
			</clipPath>
			<path class="st5" d="M85,89.1c-0.4,0-0.8-0.1-1.2-0.2l-7.6-2.5c-2-0.7-3-2.8-2.4-4.7c0.7-2,2.7-3,4.7-2.4l7.6,2.5
				c2,0.7,3,2.8,2.4,4.7C88,88.1,86.5,89.1,85,89.1L85,89.1z"/>
		</g>
	</g>
	<path class="st1" d="M95.1,73.7c-1,0-1.9-0.4-2.6-1.1L86.7,67c-1.5-1.5-1.5-3.8,0-5.3s3.8-1.5,5.3,0l5.7,5.7c1.5,1.5,1.5,3.8,0,5.3
		C97,73.4,96,73.7,95.1,73.7L95.1,73.7z"/>
</g>
<g class="st0">
	<g class="st1">
		<path d="M173.5,137.7l-13.8,3.7l-9.3-5.4l15.3-4.1c1.6-0.4,2.6-2.1,2.1-3.7c-0.4-1.6-2.1-2.6-3.7-2.1l-21.2,5.7l-8-4.6
			c-0.3-0.2-0.6-0.3-0.8-0.3l8.5-3.7c1.1-0.5,1.8-1.6,1.8-2.8c0-1.2-0.7-2.3-1.8-2.8l-8.5-3.8c0.3-0.1,0.6-0.2,0.9-0.3l8-4.6
			l21.2,5.7c0.3,0.1,0.5,0.1,0.8,0.1c1.3,0,2.6-0.9,2.9-2.2c0.4-1.6-0.5-3.3-2.1-3.7l-15.3-4.1l9.3-5.4l13.8,3.7
			c0.3,0.1,0.5,0.1,0.8,0.1c1.3,0,2.6-0.9,2.9-2.2c0.4-1.6-0.5-3.3-2.1-3.7l-8-2.1l7.7-4.4c1.4-0.8,1.9-2.7,1.1-4.1
			c-0.8-1.5-2.7-1.9-4.1-1.1l-7.7,4.4l2.1-8c0.4-1.6-0.5-3.3-2.1-3.7c-1.6-0.4-3.3,0.5-3.7,2.1l-3.7,13.8l-9.3,5.4l4.1-15.3
			c0.4-1.6-0.5-3.3-2.1-3.7c-1.6-0.4-3.3,0.5-3.7,2.1l-5.7,21.2l-8,4.6c-0.3,0.2-0.5,0.3-0.7,0.6l1-9.2c0.1-1.2-0.5-2.4-1.5-3
			s-2.3-0.5-3.3,0.2l-7.5,5.5c0.1-0.3,0.1-0.6,0.1-0.9v-9.3l15.5-15.5c1.2-1.2,1.2-3.1,0-4.3c-1.2-1.2-3.1-1.2-4.3,0l-11.4,11V72.7
			l10.1-10.1c1.2-1.2,1.2-3.1,0-4.3s-3.1-1.2-4.3,0l-5.8,5.8v-8.8c0-1.7-1.4-3-3-3c-1.7,0-3,1.4-3,3v8.8l-5.8-5.8
			c-1.2-1.2-3.1-1.2-4.3,0c-1.2,1.2-1.2,3.1,0,4.3L114,72.7v10.8l-11.2-11.2c-1.2-1.2-3.1-1.2-4.3,0c-1.2,1.2-1.2,3.1,0,4.3
			L114,92.1v9.3c0,0.3,0,0.6,0.1,0.9l-7.5-5.5c-1-0.7-2.3-0.8-3.3-0.2c-1,0.6-1.6,1.8-1.5,3l1,9.3c-0.2-0.2-0.4-0.4-0.7-0.6l-8-4.6
			l-5.7-21.2c-0.4-1.6-2.1-2.6-3.7-2.1c-1.6,0.4-2.6,2.1-2.1,3.7l4.1,15.3L77.4,94l-3.7-13.8c-0.4-1.6-2.1-2.6-3.7-2.1
			c-1.6,0.4-2.6,2.1-2.1,3.7l2.1,8l-7.7-4.4c-1.4-0.8-3.3-0.3-4.1,1.1c-0.8,1.5-0.3,3.3,1.1,4.1L67,95l-8,2.1
			c-1.6,0.4-2.6,2.1-2.1,3.7c0.4,1.4,1.6,2.2,2.9,2.2c0.3,0,0.5,0,0.8-0.1l13.8-3.7l9.3,5.4l-15.3,4.1c-1.6,0.4-2.6,2.1-2.1,3.7
			c0.4,1.4,1.6,2.2,2.9,2.2c0.3,0,0.5,0,0.8-0.1l21.2-5.7l8,4.6c0.3,0.2,0.5,0.3,0.8,0.3l-8.5,3.7c-1.1,0.5-1.8,1.6-1.8,2.8
			c0,1.2,0.7,2.3,1.8,2.8l8.5,3.8c-0.3,0.1-0.6,0.2-0.9,0.3l-8,4.6L69.9,126c-1.6-0.4-3.3,0.5-3.7,2.1c-0.4,1.6,0.5,3.3,2.1,3.7
			l15.3,4.1l-9.3,5.4l-13.8-3.7c-1.6-0.4-3.3,0.5-3.7,2.1s0.5,3.3,2.1,3.7l8,2.1l-7.7,4.4c-1.5,0.8-1.9,2.7-1.1,4.1
			c0.6,1,1.6,1.5,2.6,1.5c0.5,0,1-0.1,1.5-0.4l7.7-4.4l-2.1,8c-0.4,1.6,0.5,3.3,2.1,3.7c0.3,0.1,0.5,0.1,0.8,0.1
			c1.3,0,2.6-0.9,2.9-2.2l3.7-13.8l9.3-5.4l-4.1,15.3c-0.4,1.6,0.5,3.3,2.1,3.7c0.3,0.1,0.5,0.1,0.8,0.1c1.3,0,2.6-0.9,2.9-2.2
			l5.7-21l8-4.6c0.3-0.2,0.5-0.3,0.7-0.6l-1,9.2c-0.1,1.2,0.5,2.4,1.5,3s2.3,0.5,3.3-0.2l7.5-5.5c-0.1,0.3-0.1,0.6-0.1,0.9v9.3
			L98.5,164c-1.2,1.2-1.2,3.1,0,4.3c0.6,0.6,1.4,0.9,2.1,0.9c0.8,0,1.6-0.3,2.1-0.9l11.2-11.2v10.8L103.8,178
			c-1.2,1.2-1.2,3.1,0,4.3c0.6,0.6,1.4,0.9,2.1,0.9s1.6-0.3,2.1-0.9l5.8-5.8v8.8c0,1.7,1.4,3,3,3c1.7,0,3-1.4,3-3v-8.8l5.8,5.8
			c1.2,1.2,3.1,1.2,4.3,0s1.2-3.1,0-4.3l-9.9-10.1v-10.8l11.2,11.2c1.2,1.2,3.1,1.2,4.3,0s1.2-3.1,0-4.3L120,148.5v-9.3
			c0-0.3,0-0.6-0.1-0.9l7.5,5.5c0.5,0.4,1.2,0.6,1.8,0.6c0.5,0,1-0.1,1.5-0.4c1-0.6,1.6-1.8,1.5-3l-1-9.3c0.2,0.2,0.4,0.4,0.7,0.6
			l8,4.6l5.7,21.2c0.4,1.4,1.6,2.2,2.9,2.2c0.3,0,0.5,0,0.8-0.1c1.6-0.4,2.6-2.1,2.1-3.7l-4.1-15.3l9.3,5.4l3.7,13.8
			c0.4,1.4,1.6,2.2,2.9,2.2c0.3,0,0.5,0,0.8-0.1c1.6-0.4,2.6-2.1,2.1-3.7l-2.1-8l7.7,4.4c0.5,0.3,1,0.4,1.5,0.4c1,0,2.1-0.5,2.6-1.5
			c0.8-1.5,0.3-3.3-1.1-4.1l-7.7-4.4l8-2.1c1.6-0.4,2.6-2.1,2.1-3.7C176.8,138.3,175.1,137.3,173.5,137.7L173.5,137.7z M126.3,123.6
			c-1.2,0.5-1.9,1.8-1.8,3.1l0.9,8.2l-6.6-4.9c-0.5-0.4-1.2-0.6-1.8-0.6c-0.6,0-1.3,0.2-1.8,0.6l-6.7,4.9l0.9-8.2
			c0.1-1.3-0.6-2.6-1.8-3.1l-7.5-3.3l7.5-3.3c1.2-0.5,1.9-1.8,1.8-3.1l-0.9-8.2l6.6,4.9c1.1,0.8,2.5,0.8,3.6,0l6.7-4.9l-0.9,8.2
			c-0.1,1.3,0.6,2.6,1.8,3.1l7.5,3.3L126.3,123.6z"/>
	</g>
</g>
<g class="st0">
	<path class="st1" d="M184.1,120.7c0-5.1-4.1-9-10.1-11.6c4.9-5.1,6.7-10.2,4.9-14.6s-6.7-6.8-13.8-6.9c3.5-8.9,0.9-13.4-1.1-15.3
		c-1.3-1.3-3.6-2.8-7.4-2.8c-2.4,0-5.1,0.6-7.9,1.7c-0.1-7.1-2.5-11.9-6.9-13.8c-4.4-1.8-9.5-0.1-14.6,4.9
		c-2.6-6-6.5-10.1-11.6-10.1s-9,4.1-11.6,10.1c-5.1-4.9-10.2-6.7-14.6-4.9s-6.8,6.7-6.9,13.8c-2.9-1.1-5.5-1.7-7.9-1.7
		c-3.8,0-6.1,1.5-7.4,2.8c-1.9,1.9-4.6,6.5-1.1,15.3c-7.1,0.1-11.9,2.5-13.8,6.9c-1.8,4.4-0.1,9.5,4.9,14.6
		c-6,2.6-10.1,6.5-10.1,11.6s4.1,9,10.1,11.6c-4.9,5.1-6.7,10.2-4.9,14.6c1.8,4.4,6.7,6.8,13.8,6.9c-3.5,8.9-0.9,13.4,1.1,15.3
		c1.3,1.3,3.6,2.8,7.4,2.8c2.4,0,5.1-0.6,7.9-1.7c0.1,7.1,2.5,11.9,6.9,13.8c1.1,0.5,2.3,0.7,3.5,0.7c3.5,0,7.3-1.9,11.1-5.6
		c2.6,6,6.5,10.1,11.6,10.1s9-4.1,11.6-10.1c3.8,3.7,7.6,5.6,11.1,5.6c1.2,0,2.4-0.2,3.5-0.7c4.4-1.8,6.8-6.7,6.9-13.8
		c2.9,1.1,5.5,1.7,7.9,1.7c3.8,0,6.1-1.5,7.4-2.8c1.9-1.9,4.6-6.5,1.1-15.3c7.1-0.1,11.9-2.5,13.8-6.9c1.8-4.4,0.1-9.5-4.9-14.6
		C180,129.7,184.1,125.8,184.1,120.7L184.1,120.7z M171.1,97.8c0.3,0.7-0.9,4.1-6.7,8.5c-3.6-0.7-7.4-1-11.3-1.1
		c2.7-2.8,5.2-5.8,7.2-8.8C167.6,95.5,170.8,97.1,171.1,97.8L171.1,97.8z M158.1,78.3c0.4,0.4,0.7,2.6-1,6.8
		c-2,4.7-5.9,10.1-10.7,14.9c-2.5,2.5-5.1,4.7-7.8,6.6l-1.4,1c-0.6-2-1.6-3.8-3.1-5.3s-3.3-2.6-5.3-3.1l1-1.4
		c1.9-2.7,4.1-5.3,6.6-7.8c8.3-8.3,16.3-12.1,20.3-12.1C157.4,78,157.9,78.2,158.1,78.3L158.1,78.3z M129,129.3
		c0.5,1.3,0.1,2.9-0.9,3.9c-0.7,0.7-1.6,1.1-2.6,1.1c-0.4,0-0.8-0.1-1.2-0.2l-3.6-1.3l-1.6,3.4c-0.6,1.3-1.9,2.1-3.4,2.1
		s-2.7-0.8-3.4-2.1l-1.6-3.4l-3.6,1.3c-0.4,0.1-0.8,0.2-1.2,0.2c-1,0-1.9-0.4-2.6-1.1c-1-1-1.4-2.5-0.9-3.9l1.3-3.6l-3.4-1.6
		c-1.3-0.6-2.1-1.9-2.1-3.4c0-1.4,0.8-2.7,2.1-3.4l3.4-1.6l-1.3-3.6c-0.5-1.3-0.1-2.9,0.9-3.9c0.7-0.7,1.6-1.1,2.6-1.1
		c0.4,0,0.8,0.1,1.2,0.2l3.6,1.3l1.6-3.4c0.6-1.3,1.9-2.1,3.4-2.1s2.7,0.8,3.4,2.1l1.6,3.4l3.6-1.3c0.4-0.1,0.8-0.2,1.2-0.2
		c1,0,1.9,0.4,2.6,1.1c1,1,1.4,2.5,0.9,3.9l-1.3,3.6l3.4,1.6c1.3,0.6,2.1,1.9,2.1,3.4c0,1.4-0.8,2.7-2.1,3.4l-3.4,1.6L129,129.3z
		 M138.6,65.3c0.7,0.3,2.3,3.5,1.3,10.7c-2.9,2-5.9,4.4-8.8,7.2c-0.1-3.9-0.4-7.7-1.1-11.3C134.5,66.2,137.9,65,138.6,65.3
		L138.6,65.3z M115.6,60.7c0.6,0,2.4,1.3,4.1,5.5c1.9,4.7,3,11.3,3,18.1c0,3.5-0.3,6.9-0.8,10.1l-0.3,1.7c-1.8-1-3.8-1.6-5.9-1.6
		s-4.2,0.6-5.9,1.6l-0.3-1.7c-0.6-3.2-0.8-6.6-0.8-10.1c0-6.8,1.1-13.4,3-18.1C113.3,62.1,115,60.7,115.6,60.7L115.6,60.7z
		 M92.7,65.3c0.7-0.3,4.1,0.9,8.5,6.7c-0.7,3.6-1,7.4-1.1,11.3c-2.9-2.8-5.8-5.2-8.8-7.2C90.4,68.8,91.9,65.6,92.7,65.3L92.7,65.3z
		 M73.2,78.3c0.2-0.2,0.6-0.3,1.4-0.3c4,0,12,3.8,20.3,12.1c2.5,2.5,4.7,5.1,6.6,7.8l1,1.4c-2,0.6-3.8,1.6-5.3,3.1s-2.5,3.3-3.1,5.3
		l-1.4-1c-2.7-1.9-5.3-4.1-7.8-6.6c-4.8-4.8-8.7-10.3-10.7-14.9C72.5,80.9,72.8,78.7,73.2,78.3L73.2,78.3z M60.2,97.8
		c0.3-0.7,3.5-2.3,10.7-1.3c2,3,4.5,5.9,7.2,8.8c-3.9,0.1-7.7,0.4-11.3,1.1C61.1,101.9,59.9,98.5,60.2,97.8L60.2,97.8z M55.6,120.7
		c0-0.6,1.3-2.4,5.5-4.1c4.7-1.9,11.3-3,18.1-3c3.5,0,6.9,0.3,10.1,0.8l1.7,0.3c-1,1.8-1.6,3.8-1.6,5.9s0.6,4.2,1.6,5.9l-1.7,0.3
		c-3.2,0.6-6.6,0.8-10.1,0.8c-6.8,0-13.4-1.1-18.1-3C57,123.1,55.6,121.3,55.6,120.7L55.6,120.7z M60.2,143.7
		c-0.3-0.7,0.9-4.1,6.7-8.5c3.6,0.7,7.4,1,11.3,1.1c-2.7,2.8-5.2,5.8-7.2,8.8C63.7,146,60.5,144.4,60.2,143.7L60.2,143.7z
		 M73.2,163.2c-0.4-0.4-0.7-2.6,1-6.8c2-4.7,5.9-10.1,10.7-14.9c2.5-2.5,5.1-4.7,7.8-6.6l1.4-1c0.6,2,1.6,3.8,3.1,5.3
		s3.3,2.6,5.3,3.1l-1,1.4c-1.9,2.7-4.1,5.3-6.6,7.8c-8.3,8.3-16.3,12.1-20.3,12.1C73.8,163.5,73.4,163.3,73.2,163.2L73.2,163.2z
		 M92.7,176.2c-0.7-0.3-2.3-3.5-1.3-10.7c2.9-2,5.9-4.4,8.8-7.2c0.1,3.9,0.4,7.7,1.1,11.3C96.8,175.3,93.4,176.5,92.7,176.2
		L92.7,176.2z M115.6,180.7c-0.6,0-2.4-1.3-4.1-5.5c-1.9-4.7-3-11.3-3-18.1c0-3.5,0.3-6.9,0.8-10.1l0.3-1.7c1.8,1,3.8,1.6,5.9,1.6
		s4.2-0.6,5.9-1.6l0.3,1.7c0.6,3.2,0.8,6.6,0.8,10.1c0,6.8-1.1,13.4-3,18.1C118,179.4,116.2,180.7,115.6,180.7L115.6,180.7z
		 M138.6,176.2c-0.7,0.3-4.1-0.9-8.5-6.7c0.7-3.6,1-7.4,1.1-11.3c2.9,2.8,5.8,5.2,8.8,7.2C140.9,172.7,139.3,175.9,138.6,176.2
		L138.6,176.2z M158.1,163.2c-0.2,0.2-0.6,0.3-1.4,0.3c-4,0-12-3.8-20.3-12.1c-2.5-2.5-4.7-5.1-6.6-7.8l-1-1.4
		c2-0.6,3.8-1.6,5.3-3.1s2.5-3.3,3.1-5.3l1.4,1c2.7,1.9,5.3,4.1,7.8,6.6c4.8,4.8,8.7,10.3,10.7,14.9
		C158.8,160.5,158.5,162.7,158.1,163.2L158.1,163.2z M171.1,143.7c-0.3,0.7-3.5,2.3-10.7,1.3c-2-3-4.5-5.9-7.2-8.8
		c3.9-0.1,7.7-0.4,11.3-1.1C170.2,139.6,171.4,143,171.1,143.7L171.1,143.7z M170.1,124.8c-4.7,1.9-11.3,3-18.1,3
		c-3.5,0-6.9-0.3-10.1-0.8l-1.7-0.3c1-1.8,1.6-3.8,1.6-5.9s-0.6-4.2-1.6-5.9l1.7-0.3c3.2-0.6,6.6-0.8,10.1-0.8
		c6.8,0,13.4,1.1,18.1,3c4.2,1.7,5.5,3.5,5.5,4.1C175.6,121.3,174.3,123.1,170.1,124.8L170.1,124.8z"/>
</g>
<g>
	<g>
		<g>
			<defs>
				<rect id="SVGID_9_" x="59.3" y="51.7" width="127.1" height="138.9"/>
			</defs>
			<clipPath id="SVGID_10_">
				<use xlink:href="#SVGID_9_"  style="overflow:visible;"/>
			</clipPath>
			<path class="st6" d="M177,52.8c-0.7-1-2.1-1.4-3.2-0.9c-14.3,6.8-35.2,20.8-50.9,48.3c9.1,13.9,17,31.7,21.2,54.4
				c0.5-22.7,5-71.7,32.6-98.6C177.6,55.2,177.7,53.8,177,52.8L177,52.8z"/>
		</g>
		<g>
			<defs>
				<rect id="SVGID_11_" x="59.3" y="51.7" width="127.1" height="138.9"/>
			</defs>
			<clipPath id="SVGID_12_">
				<use xlink:href="#SVGID_11_"  style="overflow:visible;"/>
			</clipPath>
			<path class="st7" d="M82.8,72.4c-0.4-0.3-0.9-0.4-1.4-0.4c-0.7,0-1.4,0.3-1.9,0.8c-0.9,0.9-0.9,2.3-0.1,3.3
				c27.8,35.6,20.1,97,17.9,111.2c-0.1,0.7,0.1,1.5,0.6,2.1s1.2,0.9,1.9,0.9h35.8c0.7,0,1.4-0.3,1.8-0.8c0.5-0.5,0.7-1.1,0.7-1.8
				C137.3,118.5,103.3,85.9,82.8,72.4L82.8,72.4z"/>
		</g>
		<g>
			<defs>
				<rect id="SVGID_13_" x="59.3" y="51.7" width="127.1" height="138.9"/>
			</defs>
			<clipPath id="SVGID_14_">
				<use xlink:href="#SVGID_13_"  style="overflow:visible;"/>
			</clipPath>
			<path class="st8" d="M61.2,134.5c-0.5-0.3-1.2-0.3-1.6,0.2c-0.4,0.4-0.4,1.1-0.1,1.6c13.2,16.9,9.5,46,8.5,52.7
				c-0.1,0.4,0,0.7,0.3,1c0.2,0.3,0.6,0.4,0.9,0.4h17c0.3,0,0.6-0.1,0.9-0.3c0.2-0.2,0.3-0.5,0.3-0.9
				C87,156.3,70.9,140.8,61.2,134.5L61.2,134.5z"/>
		</g>
		<g>
			<defs>
				<rect id="SVGID_15_" x="59.3" y="51.7" width="127.1" height="138.9"/>
			</defs>
			<clipPath id="SVGID_16_">
				<use xlink:href="#SVGID_15_"  style="overflow:visible;"/>
			</clipPath>
			<path class="st9" d="M186.4,113.5c-0.6-0.6-1.5-0.7-2.2-0.3c-13.4,8.8-35.6,30.1-36.2,75.4c0,0.5,0.2,0.9,0.5,1.2
				s0.8,0.5,1.2,0.5h23.4c0.5,0,1-0.2,1.3-0.6c0.3-0.4,0.5-0.8,0.4-1.3c-1.5-9.3-6.5-49.4,11.7-72.7
				C187,115.1,186.9,114.1,186.4,113.5L186.4,113.5z"/>
		</g>
	</g>
</g>
</svg>
