<?xml version="1.0" encoding="utf-8"?>
<!-- Generator: Adobe Illustrator 19.2.1, SVG Export Plug-In . SVG Version: 6.00 Build 0)  -->
<svg version="1.1" id="Layer_1" xmlns="http://www.w3.org/2000/svg" xmlns:xlink="http://www.w3.org/1999/xlink" x="0px" y="0px"
	 viewBox="0 0 245.2 242.6" style="enable-background:new 0 0 245.2 242.6;" xml:space="preserve">
<style type="text/css">
	.st0{fill:#FFFFFF;}
	.st1{fill:#FCB514;}
</style>
<path class="st0" d="M122.7,1.7C57.8,1.7,5.3,54.3,5.3,119.1s52.6,117.4,117.4,117.4S240.1,184,240.1,119.1S187.5,1.7,122.7,1.7z
	 M122.7,231.8C60.4,231.8,10,181.4,10,119.1C10,56.9,60.4,6.4,122.7,6.4c62.2,0,112.7,50.5,112.7,112.7
	C235.4,181.4,184.9,231.8,122.7,231.8z"/>
<g>
	<g>
		<path class="st1" d="M185.1,138.4l-15.3,4.1l-10.3-5.9l16.9-4.5c1.8-0.5,2.8-2.3,2.4-4.1c-0.5-1.8-2.3-2.8-4.1-2.4l-23.4,6.3
			l-8.8-5.1c-0.3-0.2-0.6-0.3-0.9-0.4l9.4-4.1c1.2-0.5,2-1.7,2-3.1c0-1.3-0.8-2.5-2-3.1l-9.4-4.2c0.3-0.1,0.6-0.2,0.9-0.4l8.8-5.1
			l23.4,6.3c0.3,0.1,0.6,0.1,0.9,0.1c1.5,0,2.8-1,3.2-2.5c0.5-1.8-0.6-3.6-2.4-4.1l-16.9-4.5l10.3-5.9l15.3,4.1
			c0.3,0.1,0.6,0.1,0.9,0.1c1.5,0,2.8-1,3.2-2.5c0.5-1.8-0.6-3.6-2.4-4.1l-8.8-2.4l8.5-4.9c1.6-0.9,2.1-3,1.2-4.6
			c-0.9-1.6-3-2.2-4.6-1.2l-8.5,4.9l2.4-8.8c0.5-1.8-0.6-3.6-2.4-4.1c-1.8-0.5-3.6,0.6-4.1,2.4L166.5,90l-10.3,5.9l4.5-16.9
			c0.5-1.8-0.6-3.6-2.4-4.1c-1.8-0.5-3.6,0.6-4.1,2.4l-6.3,23.4l-8.8,5.1c-0.3,0.2-0.6,0.4-0.8,0.6l1.1-10.2
			c0.1-1.3-0.5-2.6-1.7-3.3c-1.1-0.7-2.6-0.6-3.7,0.2l-8.3,6.1c0.1-0.3,0.2-0.7,0.2-1V88l17.1-17.1c1.3-1.3,1.3-3.4,0-4.7
			c-1.3-1.3-3.4-1.3-4.7,0L126,78.5V66.6l11.2-11.2c1.3-1.3,1.3-3.4,0-4.7c-1.3-1.3-3.4-1.3-4.7,0l-6.5,6.5v-9.8
			c0-1.8-1.5-3.3-3.3-3.3c-1.8,0-3.3,1.5-3.3,3.3v9.8l-6.5-6.5c-1.3-1.3-3.4-1.3-4.7,0c-1.3,1.3-1.3,3.4,0,4.7l11.2,11.2v11.9
			L107,66.1c-1.3-1.3-3.4-1.3-4.7,0c-1.3,1.3-1.3,3.4,0,4.7L119.3,88v10.2c0,0.3,0.1,0.7,0.1,1l-8.3-6.1c-1.1-0.8-2.5-0.9-3.7-0.2
			c-1.1,0.7-1.8,1.9-1.7,3.3l1.1,10.3c-0.2-0.2-0.5-0.5-0.8-0.6l-8.8-5.1l-6.3-23.4c-0.5-1.8-2.3-2.8-4.1-2.4
			c-1.8,0.5-2.8,2.3-2.4,4.1l4.5,16.9L78.8,90l-4.1-15.3c-0.5-1.8-2.3-2.8-4.1-2.4c-1.8,0.5-2.8,2.3-2.4,4.1l2.4,8.8l-8.5-4.9
			c-1.6-0.9-3.6-0.4-4.6,1.2c-0.9,1.6-0.4,3.6,1.2,4.6l8.5,4.9l-8.8,2.4c-1.8,0.5-2.8,2.3-2.4,4.1c0.4,1.5,1.8,2.5,3.2,2.5
			c0.3,0,0.6,0,0.9-0.1l15.3-4.1l10.3,5.9l-16.9,4.5c-1.8,0.5-2.8,2.3-2.4,4.1c0.4,1.5,1.8,2.5,3.2,2.5c0.3,0,0.6,0,0.9-0.1
			l23.4-6.3l8.8,5.1c0.3,0.2,0.6,0.3,0.9,0.4l-9.4,4.1c-1.2,0.5-2,1.7-2,3.1c0,1.3,0.8,2.5,2,3.1l9.4,4.2c-0.3,0.1-0.7,0.2-1,0.4
			l-8.8,5.1l-23.4-6.3c-1.8-0.5-3.6,0.6-4.1,2.4c-0.5,1.8,0.6,3.6,2.4,4.1l16.9,4.5l-10.3,5.9l-15.3-4.1c-1.8-0.5-3.6,0.6-4.1,2.4
			c-0.5,1.8,0.6,3.6,2.4,4.1l8.8,2.4l-8.5,4.9c-1.6,0.9-2.2,3-1.2,4.6c0.6,1.1,1.7,1.7,2.9,1.7c0.6,0,1.1-0.1,1.7-0.4l8.5-4.9
			l-2.4,8.8c-0.5,1.8,0.6,3.6,2.4,4.1c0.3,0.1,0.6,0.1,0.9,0.1c1.5,0,2.8-1,3.2-2.5l4.1-15.3l10.3-5.9l-4.5,16.9
			c-0.5,1.8,0.6,3.6,2.4,4.1c0.3,0.1,0.6,0.1,0.9,0.1c1.5,0,2.8-1,3.2-2.5l6.3-23.4l8.8-5.1c0.3-0.2,0.6-0.4,0.8-0.6l-1.1,10.2
			c-0.1,1.3,0.5,2.6,1.7,3.3c1.1,0.7,2.6,0.6,3.7-0.2l8.3-6.1c-0.1,0.3-0.2,0.7-0.2,1v10.2l-17.1,17.1c-1.3,1.3-1.3,3.4,0,4.7
			c0.7,0.7,1.5,1,2.4,1c0.9,0,1.7-0.3,2.4-1l12.4-12.4v11.9l-11.2,11.2c-1.3,1.3-1.3,3.4,0,4.7c0.7,0.7,1.5,1,2.4,1s1.7-0.3,2.4-1
			l6.5-6.5v9.8c0,1.8,1.5,3.3,3.3,3.3c1.8,0,3.3-1.5,3.3-3.3v-9.8l6.5,6.5c1.3,1.3,3.4,1.3,4.7,0c1.3-1.3,1.3-3.4,0-4.7L126,171.7
			v-11.9l12.4,12.4c1.3,1.3,3.4,1.3,4.7,0c1.3-1.3,1.3-3.4,0-4.7L126,150.3v-10.2c0-0.3-0.1-0.7-0.1-1l8.3,6.1
			c0.6,0.4,1.3,0.6,2,0.6c0.6,0,1.2-0.1,1.7-0.4c1.1-0.7,1.8-1.9,1.7-3.3l-1.1-10.2c0.2,0.2,0.5,0.5,0.8,0.6l8.8,5.1l6.3,23.4
			c0.4,1.5,1.8,2.5,3.2,2.5c0.3,0,0.6,0,0.9-0.1c1.8-0.5,2.8-2.3,2.4-4.1l-4.5-16.9l10.3,5.9l4.1,15.3c0.4,1.5,1.8,2.5,3.2,2.5
			c0.3,0,0.6,0,0.9-0.1c1.8-0.5,2.8-2.3,2.4-4.1l-2.4-8.8l8.5,4.9c0.5,0.3,1.1,0.4,1.7,0.4c1.2,0,2.3-0.6,2.9-1.7
			c0.9-1.6,0.4-3.6-1.2-4.6l-8.5-4.9l8.8-2.4c1.8-0.5,2.8-2.3,2.4-4.1C188.8,139,186.9,137.9,185.1,138.4L185.1,138.4z M133,122.8
			c-1.3,0.6-2.1,2-2,3.4l1,9l-7.3-5.4c-0.6-0.4-1.3-0.6-2-0.6c-0.7,0-1.4,0.2-2,0.6l-7.3,5.4l1-9c0.2-1.5-0.6-2.8-2-3.4l-8.3-3.7
			l8.3-3.7c1.3-0.6,2.1-2,2-3.4l-1-9l7.3,5.4c1.2,0.9,2.8,0.9,4,0l7.3-5.4l-1,9c-0.2,1.5,0.6,2.8,2,3.4l8.3,3.7L133,122.8z
			 M133,122.8"/>
	</g>
</g>
<g>
</g>
<g>
</g>
<g>
</g>
<g>
</g>
<g>
</g>
<g>
</g>
</svg>
